STARTFONT 2.1
COMMENT Sources:
COMMENT -windows-proggytinysz-bold-r-normal--10-72-100-100-c-0-iso8859-1
FONT -dylex-terminal-Bold-O-Normal--10-100-75-75-C-60-ISO10646-1
SIZE 10 75 75
FONTBOUNDINGBOX 6 10 0 -2
STARTPROPERTIES 22
FONTNAME_REGISTRY ""
FOUNDRY "Misc"
FAMILY_NAME "Fixed"
WEIGHT_NAME "Bold"
SLANT "O"
SETWIDTH_NAME "Normal"
ADD_STYLE_NAME ""
PIXEL_SIZE 10
POINT_SIZE 100
RESOLUTION_X 75
RESOLUTION_Y 75
SPACING "C"
AVERAGE_WIDTH 60
CHARSET_REGISTRY "ISO10646"
CHARSET_ENCODING "1"
FONT_ASCENT 8
FONT_DESCENT 2
DEFAULT_CHAR 0
COPYRIGHT "Public domain terminal emulator font.  Share and enjoy."
CAP_HEIGHT 7
X_HEIGHT 5
_GBDFED_INFO "Edited with gbdfed 1.6."
ENDPROPERTIES
CHARS 256
STARTCHAR char0
ENCODING 0
SWIDTH 576 0
DWIDTH 6 0
BBX 6 10 0 -2
BITMAP
00
68
48
08
40
90
90
10
E0
00
ENDCHAR
STARTCHAR char1
ENCODING 1
SWIDTH 576 0
DWIDTH 6 0
BBX 6 10 0 -2
BITMAP
00
00
30
48
84
48
30
00
00
00
ENDCHAR
STARTCHAR char2
ENCODING 2
SWIDTH 576 0
DWIDTH 6 0
BBX 6 10 0 -2
BITMAP
FC
FC
FC
FC
FC
FC
FC
FC
FC
FC
ENDCHAR
STARTCHAR char3
ENCODING 3
SWIDTH 576 0
DWIDTH 6 0
BBX 6 10 0 -2
BITMAP
D0
D0
F0
FC
D8
18
18
18
00
00
ENDCHAR
STARTCHAR char4
ENCODING 4
SWIDTH 576 0
DWIDTH 6 0
BBX 6 10 0 -2
BITMAP
F0
C0
E0
DC
D8
1C
18
18
00
00
ENDCHAR
STARTCHAR char5
ENCODING 5
SWIDTH 576 0
DWIDTH 6 0
BBX 6 10 0 -2
BITMAP
60
C0
C0
DC
74
18
14
14
00
00
ENDCHAR
STARTCHAR char6
ENCODING 6
SWIDTH 576 0
DWIDTH 6 0
BBX 6 10 0 -2
BITMAP
C0
C0
C0
DC
F8
1C
18
18
00
00
ENDCHAR
STARTCHAR char7
ENCODING 7
SWIDTH 576 0
DWIDTH 6 0
BBX 6 10 0 -2
BITMAP
00
30
58
78
30
00
00
00
00
00
ENDCHAR
STARTCHAR char8
ENCODING 8
SWIDTH 576 0
DWIDTH 6 0
BBX 6 10 0 -2
BITMAP
00
00
10
10
FC
20
20
00
F8
00
ENDCHAR
STARTCHAR char9
ENCODING 9
SWIDTH 576 0
DWIDTH 6 0
BBX 6 10 0 -2
BITMAP
C0
F0
D0
D8
D8
18
18
1C
00
00
ENDCHAR
STARTCHAR char10
ENCODING 10
SWIDTH 576 0
DWIDTH 6 0
BBX 6 10 0 -2
BITMAP
A0
A0
E0
5C
5C
08
08
08
00
00
ENDCHAR
STARTCHAR char11
ENCODING 11
SWIDTH 576 0
DWIDTH 6 0
BBX 6 10 0 -2
BITMAP
30
30
30
30
F0
F0
00
00
00
00
ENDCHAR
STARTCHAR char12
ENCODING 12
SWIDTH 576 0
DWIDTH 6 0
BBX 6 10 0 -2
BITMAP
00
00
00
00
F0
F0
30
30
30
30
ENDCHAR
STARTCHAR char13
ENCODING 13
SWIDTH 576 0
DWIDTH 6 0
BBX 6 10 0 -2
BITMAP
00
00
00
00
3C
3C
30
30
30
30
ENDCHAR
STARTCHAR char14
ENCODING 14
SWIDTH 576 0
DWIDTH 6 0
BBX 6 10 0 -2
BITMAP
30
30
30
30
3C
3C
00
00
00
00
ENDCHAR
STARTCHAR char15
ENCODING 15
SWIDTH 576 0
DWIDTH 6 0
BBX 6 10 0 -2
BITMAP
30
30
30
30
FC
FC
30
30
30
30
ENDCHAR
STARTCHAR char16
ENCODING 16
SWIDTH 576 0
DWIDTH 6 0
BBX 6 10 0 -2
BITMAP
FC
FC
00
00
00
00
00
00
00
00
ENDCHAR
STARTCHAR char17
ENCODING 17
SWIDTH 576 0
DWIDTH 6 0
BBX 6 10 0 -2
BITMAP
00
00
FC
FC
00
00
00
00
00
00
ENDCHAR
STARTCHAR char18
ENCODING 18
SWIDTH 576 0
DWIDTH 6 0
BBX 6 10 0 -2
BITMAP
00
00
00
00
FC
FC
00
00
00
00
ENDCHAR
STARTCHAR char19
ENCODING 19
SWIDTH 576 0
DWIDTH 6 0
BBX 6 10 0 -2
BITMAP
00
00
00
00
00
00
FC
FC
00
00
ENDCHAR
STARTCHAR char20
ENCODING 20
SWIDTH 576 0
DWIDTH 6 0
BBX 6 10 0 -2
BITMAP
00
00
00
00
00
00
00
00
FC
FC
ENDCHAR
STARTCHAR char21
ENCODING 21
SWIDTH 576 0
DWIDTH 6 0
BBX 6 10 0 -2
BITMAP
30
30
30
30
3C
3C
30
30
30
30
ENDCHAR
STARTCHAR char22
ENCODING 22
SWIDTH 576 0
DWIDTH 6 0
BBX 6 10 0 -2
BITMAP
30
30
30
30
F0
F0
30
30
30
30
ENDCHAR
STARTCHAR char23
ENCODING 23
SWIDTH 576 0
DWIDTH 6 0
BBX 6 10 0 -2
BITMAP
30
30
30
30
FC
FC
00
00
00
00
ENDCHAR
STARTCHAR char24
ENCODING 24
SWIDTH 576 0
DWIDTH 6 0
BBX 6 10 0 -2
BITMAP
00
00
00
00
FC
FC
30
30
30
30
ENDCHAR
STARTCHAR char25
ENCODING 25
SWIDTH 576 0
DWIDTH 6 0
BBX 6 10 0 -2
BITMAP
30
30
30
30
30
30
30
30
30
30
ENDCHAR
STARTCHAR char26
ENCODING 26
SWIDTH 576 0
DWIDTH 6 0
BBX 6 10 0 -2
BITMAP
00
0C
38
70
38
18
00
F8
00
00
ENDCHAR
STARTCHAR char27
ENCODING 27
SWIDTH 576 0
DWIDTH 6 0
BBX 6 10 0 -2
BITMAP
00
60
38
1C
38
C0
00
F8
00
00
ENDCHAR
STARTCHAR char28
ENCODING 28
SWIDTH 576 0
DWIDTH 6 0
BBX 6 10 0 -2
BITMAP
00
00
00
7C
7C
28
50
50
00
00
ENDCHAR
STARTCHAR char29
ENCODING 29
SWIDTH 576 0
DWIDTH 6 0
BBX 6 10 0 -2
BITMAP
00
00
0C
7C
30
F8
C0
00
00
00
ENDCHAR
STARTCHAR char30
ENCODING 30
SWIDTH 576 0
DWIDTH 6 0
BBX 6 10 0 -2
BITMAP
1C
34
30
F8
60
C0
F8
F8
00
00
ENDCHAR
STARTCHAR char31
ENCODING 31
SWIDTH 576 0
DWIDTH 6 0
BBX 6 10 0 -2
BITMAP
00
00
00
38
38
00
00
00
00
00
ENDCHAR
STARTCHAR char32
ENCODING 32
SWIDTH 576 0
DWIDTH 6 0
BBX 6 10 0 -2
BITMAP
00
00
00
00
00
00
00
00
00
00
ENDCHAR
STARTCHAR char33
ENCODING 33
SWIDTH 576 0
DWIDTH 6 0
BBX 6 10 0 -2
BITMAP
00
08
18
18
30
20
00
20
00
00
ENDCHAR
STARTCHAR char34
ENCODING 34
SWIDTH 576 0
DWIDTH 6 0
BBX 6 10 0 -2
BITMAP
58
58
58
00
00
00
00
00
00
00
ENDCHAR
STARTCHAR char35
ENCODING 35
SWIDTH 576 0
DWIDTH 6 0
BBX 6 10 0 -2
BITMAP
00
28
7C
7C
28
F8
F8
50
00
00
ENDCHAR
STARTCHAR char36
ENCODING 36
SWIDTH 576 0
DWIDTH 6 0
BBX 6 10 0 -2
BITMAP
00
10
3C
70
78
38
F0
20
00
00
ENDCHAR
STARTCHAR char37
ENCODING 37
SWIDTH 576 0
DWIDTH 6 0
BBX 6 10 0 -2
BITMAP
00
64
EC
D8
30
6C
DC
98
00
00
ENDCHAR
STARTCHAR char38
ENCODING 38
SWIDTH 576 0
DWIDTH 6 0
BBX 6 10 0 -2
BITMAP
00
38
6C
58
30
7C
D8
74
00
00
ENDCHAR
STARTCHAR char39
ENCODING 39
SWIDTH 576 0
DWIDTH 6 0
BBX 6 10 0 -2
BITMAP
30
30
30
00
00
00
00
00
00
00
ENDCHAR
STARTCHAR char40
ENCODING 40
SWIDTH 576 0
DWIDTH 6 0
BBX 6 10 0 -2
BITMAP
08
18
30
30
60
60
60
30
10
00
ENDCHAR
STARTCHAR char41
ENCODING 41
SWIDTH 576 0
DWIDTH 6 0
BBX 6 10 0 -2
BITMAP
20
30
18
18
18
30
30
60
40
00
ENDCHAR
STARTCHAR char42
ENCODING 42
SWIDTH 576 0
DWIDTH 6 0
BBX 6 10 0 -2
BITMAP
00
00
54
38
FC
70
A8
00
00
00
ENDCHAR
STARTCHAR char43
ENCODING 43
SWIDTH 576 0
DWIDTH 6 0
BBX 6 10 0 -2
BITMAP
00
00
10
10
FC
20
20
00
00
00
ENDCHAR
STARTCHAR char44
ENCODING 44
SWIDTH 576 0
DWIDTH 6 0
BBX 6 10 0 -2
BITMAP
00
00
00
00
00
00
20
20
40
00
ENDCHAR
STARTCHAR char45
ENCODING 45
SWIDTH 576 0
DWIDTH 6 0
BBX 6 10 0 -2
BITMAP
00
00
00
00
7C
00
00
00
00
00
ENDCHAR
STARTCHAR char46
ENCODING 46
SWIDTH 576 0
DWIDTH 6 0
BBX 6 10 0 -2
BITMAP
00
00
00
00
00
00
30
30
00
00
ENDCHAR
STARTCHAR char47
ENCODING 47
SWIDTH 576 0
DWIDTH 6 0
BBX 6 10 0 -2
BITMAP
04
0C
08
18
30
60
40
C0
80
00
ENDCHAR
STARTCHAR char48
ENCODING 48
SWIDTH 576 0
DWIDTH 6 0
BBX 6 10 0 -2
BITMAP
00
38
6C
6C
7C
D8
D8
70
00
00
ENDCHAR
STARTCHAR char49
ENCODING 49
SWIDTH 576 0
DWIDTH 6 0
BBX 6 10 0 -2
BITMAP
00
08
18
38
18
30
30
78
00
00
ENDCHAR
STARTCHAR char50
ENCODING 50
SWIDTH 576 0
DWIDTH 6 0
BBX 6 10 0 -2
BITMAP
00
38
4C
0C
18
30
60
F8
00
00
ENDCHAR
STARTCHAR char51
ENCODING 51
SWIDTH 576 0
DWIDTH 6 0
BBX 6 10 0 -2
BITMAP
00
78
4C
0C
78
18
98
F0
00
00
ENDCHAR
STARTCHAR char52
ENCODING 52
SWIDTH 576 0
DWIDTH 6 0
BBX 6 10 0 -2
BITMAP
00
08
18
38
58
F8
30
30
00
00
ENDCHAR
STARTCHAR char53
ENCODING 53
SWIDTH 576 0
DWIDTH 6 0
BBX 6 10 0 -2
BITMAP
00
7C
60
60
7C
0C
CC
78
00
00
ENDCHAR
STARTCHAR char54
ENCODING 54
SWIDTH 576 0
DWIDTH 6 0
BBX 6 10 0 -2
BITMAP
00
18
30
60
78
D8
D8
70
00
00
ENDCHAR
STARTCHAR char55
ENCODING 55
SWIDTH 576 0
DWIDTH 6 0
BBX 6 10 0 -2
BITMAP
00
7C
7C
0C
18
30
60
40
00
00
ENDCHAR
STARTCHAR char56
ENCODING 56
SWIDTH 576 0
DWIDTH 6 0
BBX 6 10 0 -2
BITMAP
00
38
6C
6C
78
D8
D8
70
00
00
ENDCHAR
STARTCHAR char57
ENCODING 57
SWIDTH 576 0
DWIDTH 6 0
BBX 6 10 0 -2
BITMAP
00
38
6C
6C
3C
18
30
60
00
00
ENDCHAR
STARTCHAR char58
ENCODING 58
SWIDTH 576 0
DWIDTH 6 0
BBX 6 10 0 -2
BITMAP
00
00
18
18
00
30
30
00
00
00
ENDCHAR
STARTCHAR char59
ENCODING 59
SWIDTH 576 0
DWIDTH 6 0
BBX 6 10 0 -2
BITMAP
00
00
00
10
00
20
20
40
00
00
ENDCHAR
STARTCHAR char60
ENCODING 60
SWIDTH 576 0
DWIDTH 6 0
BBX 6 10 0 -2
BITMAP
00
00
0C
38
70
70
18
00
00
00
ENDCHAR
STARTCHAR char61
ENCODING 61
SWIDTH 576 0
DWIDTH 6 0
BBX 6 10 0 -2
BITMAP
00
00
7C
7C
00
F8
F8
00
00
00
ENDCHAR
STARTCHAR char62
ENCODING 62
SWIDTH 576 0
DWIDTH 6 0
BBX 6 10 0 -2
BITMAP
00
00
60
38
1C
70
C0
00
00
00
ENDCHAR
STARTCHAR char63
ENCODING 63
SWIDTH 576 0
DWIDTH 6 0
BBX 6 10 0 -2
BITMAP
00
38
6C
0C
18
20
00
20
00
00
ENDCHAR
STARTCHAR char64
ENCODING 64
SWIDTH 576 0
DWIDTH 6 0
BBX 6 10 0 -2
BITMAP
38
7C
44
54
5C
B8
80
78
00
00
ENDCHAR
STARTCHAR char65
ENCODING 65
SWIDTH 576 0
DWIDTH 6 0
BBX 6 10 0 -2
BITMAP
00
10
38
28
78
D8
D8
D8
00
00
ENDCHAR
STARTCHAR char66
ENCODING 66
SWIDTH 576 0
DWIDTH 6 0
BBX 6 10 0 -2
BITMAP
00
78
6C
6C
78
D8
D8
F0
00
00
ENDCHAR
STARTCHAR char67
ENCODING 67
SWIDTH 576 0
DWIDTH 6 0
BBX 6 10 0 -2
BITMAP
00
38
64
60
60
C0
C8
70
00
00
ENDCHAR
STARTCHAR char68
ENCODING 68
SWIDTH 576 0
DWIDTH 6 0
BBX 6 10 0 -2
BITMAP
00
70
68
6C
6C
D8
D0
E0
00
00
ENDCHAR
STARTCHAR char69
ENCODING 69
SWIDTH 576 0
DWIDTH 6 0
BBX 6 10 0 -2
BITMAP
00
7C
60
60
78
C0
C0
F8
00
00
ENDCHAR
STARTCHAR char70
ENCODING 70
SWIDTH 576 0
DWIDTH 6 0
BBX 6 10 0 -2
BITMAP
00
7C
60
60
78
C0
C0
C0
00
00
ENDCHAR
STARTCHAR char71
ENCODING 71
SWIDTH 576 0
DWIDTH 6 0
BBX 6 10 0 -2
BITMAP
00
38
6C
60
D8
C8
D8
70
00
00
ENDCHAR
STARTCHAR char72
ENCODING 72
SWIDTH 576 0
DWIDTH 6 0
BBX 6 10 0 -2
BITMAP
00
6C
6C
6C
7C
D8
D8
D8
00
00
ENDCHAR
STARTCHAR char73
ENCODING 73
SWIDTH 576 0
DWIDTH 6 0
BBX 6 10 0 -2
BITMAP
00
3C
18
18
18
30
30
78
00
00
ENDCHAR
STARTCHAR char74
ENCODING 74
SWIDTH 576 0
DWIDTH 6 0
BBX 6 10 0 -2
BITMAP
00
3C
0C
0C
0C
18
18
F0
00
00
ENDCHAR
STARTCHAR char75
ENCODING 75
SWIDTH 576 0
DWIDTH 6 0
BBX 6 10 0 -2
BITMAP
00
64
68
70
70
F0
D8
C8
00
00
ENDCHAR
STARTCHAR char76
ENCODING 76
SWIDTH 576 0
DWIDTH 6 0
BBX 6 10 0 -2
BITMAP
00
60
60
60
60
C0
C0
F8
00
00
ENDCHAR
STARTCHAR char77
ENCODING 77
SWIDTH 576 0
DWIDTH 6 0
BBX 6 10 0 -2
BITMAP
00
44
44
6C
7C
F8
D8
D8
00
00
ENDCHAR
STARTCHAR char78
ENCODING 78
SWIDTH 576 0
DWIDTH 6 0
BBX 6 10 0 -2
BITMAP
00
64
64
74
74
D8
D8
D8
00
00
ENDCHAR
STARTCHAR char79
ENCODING 79
SWIDTH 576 0
DWIDTH 6 0
BBX 6 10 0 -2
BITMAP
00
38
6C
6C
6C
D8
D8
70
00
00
ENDCHAR
STARTCHAR char80
ENCODING 80
SWIDTH 576 0
DWIDTH 6 0
BBX 6 10 0 -2
BITMAP
00
78
6C
6C
78
C0
C0
C0
00
00
ENDCHAR
STARTCHAR char81
ENCODING 81
SWIDTH 576 0
DWIDTH 6 0
BBX 6 10 0 -2
BITMAP
00
38
6C
6C
6C
F8
D8
74
00
00
ENDCHAR
STARTCHAR char82
ENCODING 82
SWIDTH 576 0
DWIDTH 6 0
BBX 6 10 0 -2
BITMAP
00
78
6C
6C
78
D8
D8
D8
00
00
ENDCHAR
STARTCHAR char83
ENCODING 83
SWIDTH 576 0
DWIDTH 6 0
BBX 6 10 0 -2
BITMAP
00
38
64
60
38
18
98
70
00
00
ENDCHAR
STARTCHAR char84
ENCODING 84
SWIDTH 576 0
DWIDTH 6 0
BBX 6 10 0 -2
BITMAP
00
7E
18
18
18
30
30
30
00
00
ENDCHAR
STARTCHAR char85
ENCODING 85
SWIDTH 576 0
DWIDTH 6 0
BBX 6 10 0 -2
BITMAP
00
6C
6C
6C
6C
D8
D8
70
00
00
ENDCHAR
STARTCHAR char86
ENCODING 86
SWIDTH 576 0
DWIDTH 6 0
BBX 6 10 0 -2
BITMAP
00
6C
6C
6C
6C
48
70
20
00
00
ENDCHAR
STARTCHAR char87
ENCODING 87
SWIDTH 576 0
DWIDTH 6 0
BBX 6 10 0 -2
BITMAP
00
44
54
54
7C
78
70
50
00
00
ENDCHAR
STARTCHAR char88
ENCODING 88
SWIDTH 576 0
DWIDTH 6 0
BBX 6 10 0 -2
BITMAP
00
6C
6C
28
30
50
D8
D8
00
00
ENDCHAR
STARTCHAR char89
ENCODING 89
SWIDTH 576 0
DWIDTH 6 0
BBX 6 10 0 -2
BITMAP
00
6C
6C
6C
38
30
60
60
00
00
ENDCHAR
STARTCHAR char90
ENCODING 90
SWIDTH 576 0
DWIDTH 6 0
BBX 6 10 0 -2
BITMAP
00
7C
1C
18
30
60
E0
F8
00
00
ENDCHAR
STARTCHAR char91
ENCODING 91
SWIDTH 576 0
DWIDTH 6 0
BBX 6 10 0 -2
BITMAP
38
30
30
30
30
60
60
60
70
00
ENDCHAR
STARTCHAR char92
ENCODING 92
SWIDTH 576 0
DWIDTH 6 0
BBX 6 10 0 -2
BITMAP
40
60
60
30
30
30
18
18
08
00
ENDCHAR
STARTCHAR char93
ENCODING 93
SWIDTH 576 0
DWIDTH 6 0
BBX 6 10 0 -2
BITMAP
38
18
18
18
18
30
30
30
70
00
ENDCHAR
STARTCHAR char94
ENCODING 94
SWIDTH 576 0
DWIDTH 6 0
BBX 6 10 0 -2
BITMAP
00
10
38
68
CC
00
00
00
00
00
ENDCHAR
STARTCHAR char95
ENCODING 95
SWIDTH 576 0
DWIDTH 6 0
BBX 6 10 0 -2
BITMAP
00
00
00
00
00
00
00
00
FC
FC
ENDCHAR
STARTCHAR char96
ENCODING 96
SWIDTH 576 0
DWIDTH 6 0
BBX 6 10 0 -2
BITMAP
00
20
30
10
00
00
00
00
00
00
ENDCHAR
STARTCHAR char97
ENCODING 97
SWIDTH 576 0
DWIDTH 6 0
BBX 6 10 0 -2
BITMAP
00
00
00
38
0C
78
D8
78
00
00
ENDCHAR
STARTCHAR char98
ENCODING 98
SWIDTH 576 0
DWIDTH 6 0
BBX 6 10 0 -2
BITMAP
60
60
60
78
6C
D8
D8
F0
00
00
ENDCHAR
STARTCHAR char99
ENCODING 99
SWIDTH 576 0
DWIDTH 6 0
BBX 6 10 0 -2
BITMAP
00
00
00
3C
60
C0
C0
78
00
00
ENDCHAR
STARTCHAR char100
ENCODING 100
SWIDTH 576 0
DWIDTH 6 0
BBX 6 10 0 -2
BITMAP
0C
0C
0C
3C
6C
D8
D8
78
00
00
ENDCHAR
STARTCHAR char101
ENCODING 101
SWIDTH 576 0
DWIDTH 6 0
BBX 6 10 0 -2
BITMAP
00
00
00
38
6C
F8
C0
78
00
00
ENDCHAR
STARTCHAR char102
ENCODING 102
SWIDTH 576 0
DWIDTH 6 0
BBX 6 10 0 -2
BITMAP
1C
30
30
7C
30
60
60
60
00
00
ENDCHAR
STARTCHAR char103
ENCODING 103
SWIDTH 576 0
DWIDTH 6 0
BBX 6 10 0 -2
BITMAP
00
00
00
38
6C
D8
D8
78
18
70
ENDCHAR
STARTCHAR char104
ENCODING 104
SWIDTH 576 0
DWIDTH 6 0
BBX 6 10 0 -2
BITMAP
60
60
60
78
6C
D8
D8
D8
00
00
ENDCHAR
STARTCHAR char105
ENCODING 105
SWIDTH 576 0
DWIDTH 6 0
BBX 6 10 0 -2
BITMAP
18
18
00
38
18
30
30
30
00
00
ENDCHAR
STARTCHAR char106
ENCODING 106
SWIDTH 576 0
DWIDTH 6 0
BBX 6 10 0 -2
BITMAP
18
18
00
38
18
30
30
30
30
E0
ENDCHAR
STARTCHAR char107
ENCODING 107
SWIDTH 576 0
DWIDTH 6 0
BBX 6 10 0 -2
BITMAP
30
30
30
34
38
70
78
68
00
00
ENDCHAR
STARTCHAR char108
ENCODING 108
SWIDTH 576 0
DWIDTH 6 0
BBX 6 10 0 -2
BITMAP
38
18
18
18
18
30
30
30
00
00
ENDCHAR
STARTCHAR char109
ENCODING 109
SWIDTH 576 0
DWIDTH 6 0
BBX 6 10 0 -2
BITMAP
00
00
00
68
7C
7C
A8
A8
00
00
ENDCHAR
STARTCHAR char110
ENCODING 110
SWIDTH 576 0
DWIDTH 6 0
BBX 6 10 0 -2
BITMAP
00
00
00
78
6C
6C
D8
D8
00
00
ENDCHAR
STARTCHAR char111
ENCODING 111
SWIDTH 576 0
DWIDTH 6 0
BBX 6 10 0 -2
BITMAP
00
00
00
38
6C
CC
D8
70
00
00
ENDCHAR
STARTCHAR char112
ENCODING 112
SWIDTH 576 0
DWIDTH 6 0
BBX 6 10 0 -2
BITMAP
00
00
00
78
6C
CC
D8
F0
C0
C0
ENDCHAR
STARTCHAR char113
ENCODING 113
SWIDTH 576 0
DWIDTH 6 0
BBX 6 10 0 -2
BITMAP
00
00
00
3C
6C
CC
D8
78
18
18
ENDCHAR
STARTCHAR char114
ENCODING 114
SWIDTH 576 0
DWIDTH 6 0
BBX 6 10 0 -2
BITMAP
00
00
00
68
74
C0
C0
C0
00
00
ENDCHAR
STARTCHAR char115
ENCODING 115
SWIDTH 576 0
DWIDTH 6 0
BBX 6 10 0 -2
BITMAP
00
00
00
3C
60
30
18
F0
00
00
ENDCHAR
STARTCHAR char116
ENCODING 116
SWIDTH 576 0
DWIDTH 6 0
BBX 6 10 0 -2
BITMAP
00
30
30
3C
30
60
60
38
00
00
ENDCHAR
STARTCHAR char117
ENCODING 117
SWIDTH 576 0
DWIDTH 6 0
BBX 6 10 0 -2
BITMAP
00
00
00
6C
6C
D8
D8
78
00
00
ENDCHAR
STARTCHAR char118
ENCODING 118
SWIDTH 576 0
DWIDTH 6 0
BBX 6 10 0 -2
BITMAP
00
00
00
6C
6C
50
70
20
00
00
ENDCHAR
STARTCHAR char119
ENCODING 119
SWIDTH 576 0
DWIDTH 6 0
BBX 6 10 0 -2
BITMAP
00
00
00
44
54
F8
F8
50
00
00
ENDCHAR
STARTCHAR char120
ENCODING 120
SWIDTH 576 0
DWIDTH 6 0
BBX 6 10 0 -2
BITMAP
00
00
00
6C
28
30
50
D8
00
00
ENDCHAR
STARTCHAR char121
ENCODING 121
SWIDTH 576 0
DWIDTH 6 0
BBX 6 10 0 -2
BITMAP
00
00
00
6C
6C
D8
D8
78
18
70
ENDCHAR
STARTCHAR char122
ENCODING 122
SWIDTH 576 0
DWIDTH 6 0
BBX 6 10 0 -2
BITMAP
00
00
00
7C
18
30
60
F8
00
00
ENDCHAR
STARTCHAR char123
ENCODING 123
SWIDTH 576 0
DWIDTH 6 0
BBX 6 10 0 -2
BITMAP
18
10
10
30
60
60
20
20
30
00
ENDCHAR
STARTCHAR char124
ENCODING 124
SWIDTH 576 0
DWIDTH 6 0
BBX 6 10 0 -2
BITMAP
18
18
18
18
18
30
30
30
30
00
ENDCHAR
STARTCHAR char125
ENCODING 125
SWIDTH 576 0
DWIDTH 6 0
BBX 6 10 0 -2
BITMAP
30
10
10
18
18
30
20
20
60
00
ENDCHAR
STARTCHAR char126
ENCODING 126
SWIDTH 576 0
DWIDTH 6 0
BBX 6 10 0 -2
BITMAP
00
00
00
00
6C
D8
00
00
00
00
ENDCHAR
STARTCHAR char127
ENCODING 127
SWIDTH 576 0
DWIDTH 6 0
BBX 6 10 0 -2
BITMAP
00
00
00
00
00
00
00
00
00
00
ENDCHAR
STARTCHAR char128
ENCODING 128
SWIDTH 576 0
DWIDTH 6 0
BBX 6 10 0 -2
BITMAP
00
38
64
F0
60
F0
C8
70
00
00
ENDCHAR
STARTCHAR char129
ENCODING 129
SWIDTH 576 0
DWIDTH 6 0
BBX 6 10 0 -2
BITMAP
00
00
00
00
00
00
00
00
00
00
ENDCHAR
STARTCHAR char130
ENCODING 130
SWIDTH 576 0
DWIDTH 6 0
BBX 6 10 0 -2
BITMAP
00
00
00
00
00
00
10
30
20
00
ENDCHAR
STARTCHAR char131
ENCODING 131
SWIDTH 576 0
DWIDTH 6 0
BBX 6 10 0 -2
BITMAP
0C
18
18
3C
18
30
30
30
30
60
ENDCHAR
STARTCHAR char132
ENCODING 132
SWIDTH 576 0
DWIDTH 6 0
BBX 6 10 0 -2
BITMAP
00
00
00
00
00
00
00
58
58
00
ENDCHAR
STARTCHAR char133
ENCODING 133
SWIDTH 576 0
DWIDTH 6 0
BBX 6 10 0 -2
BITMAP
00
00
00
00
00
00
00
A8
A8
00
ENDCHAR
STARTCHAR char134
ENCODING 134
SWIDTH 576 0
DWIDTH 6 0
BBX 6 10 0 -2
BITMAP
10
10
7C
7C
10
20
20
20
20
00
ENDCHAR
STARTCHAR char135
ENCODING 135
SWIDTH 576 0
DWIDTH 6 0
BBX 6 10 0 -2
BITMAP
10
10
7C
10
F8
20
20
20
20
00
ENDCHAR
STARTCHAR char136
ENCODING 136
SWIDTH 576 0
DWIDTH 6 0
BBX 6 10 0 -2
BITMAP
20
70
50
00
00
00
00
00
00
00
ENDCHAR
STARTCHAR char137
ENCODING 137
SWIDTH 576 0
DWIDTH 6 0
BBX 6 10 0 -2
BITMAP
04
CC
D8
30
60
D4
94
00
00
00
ENDCHAR
STARTCHAR char138
ENCODING 138
SWIDTH 576 0
DWIDTH 6 0
BBX 6 10 0 -2
BITMAP
28
10
00
3C
60
78
18
F0
00
00
ENDCHAR
STARTCHAR char139
ENCODING 139
SWIDTH 576 0
DWIDTH 6 0
BBX 6 10 0 -2
BITMAP
00
00
00
18
70
C0
60
30
00
00
ENDCHAR
STARTCHAR char140
ENCODING 140
SWIDTH 576 0
DWIDTH 6 0
BBX 6 10 0 -2
BITMAP
00
34
58
58
5C
B0
B0
D8
00
00
ENDCHAR
STARTCHAR char141
ENCODING 141
SWIDTH 576 0
DWIDTH 6 0
BBX 6 10 0 -2
BITMAP
00
00
00
00
00
00
00
00
00
00
ENDCHAR
STARTCHAR char142
ENCODING 142
SWIDTH 576 0
DWIDTH 6 0
BBX 6 10 0 -2
BITMAP
28
10
00
7C
18
30
60
F8
00
00
ENDCHAR
STARTCHAR char143
ENCODING 143
SWIDTH 576 0
DWIDTH 6 0
BBX 6 10 0 -2
BITMAP
00
00
00
00
00
00
00
00
00
00
ENDCHAR
STARTCHAR char144
ENCODING 144
SWIDTH 576 0
DWIDTH 6 0
BBX 6 10 0 -2
BITMAP
00
00
00
00
00
00
00
00
00
00
ENDCHAR
STARTCHAR char145
ENCODING 145
SWIDTH 576 0
DWIDTH 6 0
BBX 6 10 0 -2
BITMAP
60
60
30
00
00
00
00
00
00
00
ENDCHAR
STARTCHAR char146
ENCODING 146
SWIDTH 576 0
DWIDTH 6 0
BBX 6 10 0 -2
BITMAP
18
18
30
00
00
00
00
00
00
00
ENDCHAR
STARTCHAR char147
ENCODING 147
SWIDTH 576 0
DWIDTH 6 0
BBX 6 10 0 -2
BITMAP
D0
D0
68
00
00
00
00
00
00
00
ENDCHAR
STARTCHAR char148
ENCODING 148
SWIDTH 576 0
DWIDTH 6 0
BBX 6 10 0 -2
BITMAP
2C
2C
58
00
00
00
00
00
00
00
ENDCHAR
STARTCHAR char149
ENCODING 149
SWIDTH 576 0
DWIDTH 6 0
BBX 6 10 0 -2
BITMAP
00
00
00
00
38
38
38
00
00
00
ENDCHAR
STARTCHAR char150
ENCODING 150
SWIDTH 576 0
DWIDTH 6 0
BBX 6 10 0 -2
BITMAP
00
00
00
00
00
F8
F8
00
00
00
ENDCHAR
STARTCHAR char151
ENCODING 151
SWIDTH 576 0
DWIDTH 6 0
BBX 6 10 0 -2
BITMAP
00
00
00
00
00
FC
FC
00
00
00
ENDCHAR
STARTCHAR char152
ENCODING 152
SWIDTH 576 0
DWIDTH 6 0
BBX 6 10 0 -2
BITMAP
00
00
00
00
6C
D8
00
00
00
00
ENDCHAR
STARTCHAR char153
ENCODING 153
SWIDTH 576 0
DWIDTH 6 0
BBX 6 10 0 -2
BITMAP
00
00
00
FC
FC
54
54
00
00
00
ENDCHAR
STARTCHAR char154
ENCODING 154
SWIDTH 576 0
DWIDTH 6 0
BBX 6 10 0 -2
BITMAP
28
10
00
3C
60
78
18
F0
00
00
ENDCHAR
STARTCHAR char155
ENCODING 155
SWIDTH 576 0
DWIDTH 6 0
BBX 6 10 0 -2
BITMAP
00
00
00
30
18
18
30
60
00
00
ENDCHAR
STARTCHAR char156
ENCODING 156
SWIDTH 576 0
DWIDTH 6 0
BBX 6 10 0 -2
BITMAP
00
00
00
34
58
BC
B0
6C
00
00
ENDCHAR
STARTCHAR char157
ENCODING 157
SWIDTH 576 0
DWIDTH 6 0
BBX 6 10 0 -2
BITMAP
00
00
00
00
00
00
00
00
00
00
ENDCHAR
STARTCHAR char158
ENCODING 158
SWIDTH 576 0
DWIDTH 6 0
BBX 6 10 0 -2
BITMAP
28
10
00
7C
18
30
60
F8
00
00
ENDCHAR
STARTCHAR char159
ENCODING 159
SWIDTH 576 0
DWIDTH 6 0
BBX 6 10 0 -2
BITMAP
28
00
6C
6C
6C
38
20
20
00
00
ENDCHAR
STARTCHAR char160
ENCODING 160
SWIDTH 576 0
DWIDTH 6 0
BBX 6 10 0 -2
BITMAP
00
00
00
00
00
00
00
00
00
00
ENDCHAR
STARTCHAR char161
ENCODING 161
SWIDTH 576 0
DWIDTH 6 0
BBX 6 10 0 -2
BITMAP
00
18
00
18
18
30
30
30
00
00
ENDCHAR
STARTCHAR char162
ENCODING 162
SWIDTH 576 0
DWIDTH 6 0
BBX 6 10 0 -2
BITMAP
00
00
08
3C
28
50
78
10
00
00
ENDCHAR
STARTCHAR char163
ENCODING 163
SWIDTH 576 0
DWIDTH 6 0
BBX 6 10 0 -2
BITMAP
1C
30
30
7C
30
60
C0
F8
00
00
ENDCHAR
STARTCHAR char164
ENCODING 164
SWIDTH 576 0
DWIDTH 6 0
BBX 6 10 0 -2
BITMAP
00
00
44
38
38
70
70
88
00
00
ENDCHAR
STARTCHAR char165
ENCODING 165
SWIDTH 576 0
DWIDTH 6 0
BBX 6 10 0 -2
BITMAP
00
6C
6C
38
30
F8
60
60
00
00
ENDCHAR
STARTCHAR char166
ENCODING 166
SWIDTH 576 0
DWIDTH 6 0
BBX 6 10 0 -2
BITMAP
18
18
18
18
00
30
30
30
30
00
ENDCHAR
STARTCHAR char167
ENCODING 167
SWIDTH 576 0
DWIDTH 6 0
BBX 6 10 0 -2
BITMAP
0C
10
30
78
6C
D8
78
30
20
C0
ENDCHAR
STARTCHAR char168
ENCODING 168
SWIDTH 576 0
DWIDTH 6 0
BBX 6 10 0 -2
BITMAP
00
D8
00
00
00
00
00
00
00
00
ENDCHAR
STARTCHAR char169
ENCODING 169
SWIDTH 576 0
DWIDTH 6 0
BBX 6 10 0 -2
BITMAP
00
78
7C
4C
DC
98
F8
70
00
00
ENDCHAR
STARTCHAR char170
ENCODING 170
SWIDTH 576 0
DWIDTH 6 0
BBX 6 10 0 -2
BITMAP
30
18
38
00
38
00
00
00
00
00
ENDCHAR
STARTCHAR char171
ENCODING 171
SWIDTH 576 0
DWIDTH 6 0
BBX 6 10 0 -2
BITMAP
00
00
00
1A
34
D0
68
34
00
00
ENDCHAR
STARTCHAR char172
ENCODING 172
SWIDTH 576 0
DWIDTH 6 0
BBX 6 10 0 -2
BITMAP
00
00
00
00
78
18
30
30
00
00
ENDCHAR
STARTCHAR char173
ENCODING 173
SWIDTH 576 0
DWIDTH 6 0
BBX 6 10 0 -2
BITMAP
00
00
00
00
00
00
00
00
00
00
ENDCHAR
STARTCHAR char174
ENCODING 174
SWIDTH 576 0
DWIDTH 6 0
BBX 6 10 0 -2
BITMAP
00
38
7C
64
D8
D8
F8
70
00
00
ENDCHAR
STARTCHAR char175
ENCODING 175
SWIDTH 576 0
DWIDTH 6 0
BBX 6 10 0 -2
BITMAP
00
F8
F8
00
00
00
00
00
00
00
ENDCHAR
STARTCHAR char176
ENCODING 176
SWIDTH 576 0
DWIDTH 6 0
BBX 6 10 0 -2
BITMAP
00
30
58
30
00
00
00
00
00
00
ENDCHAR
STARTCHAR char177
ENCODING 177
SWIDTH 576 0
DWIDTH 6 0
BBX 6 10 0 -2
BITMAP
00
00
10
10
FC
20
20
F8
00
00
ENDCHAR
STARTCHAR char178
ENCODING 178
SWIDTH 576 0
DWIDTH 6 0
BBX 6 10 0 -2
BITMAP
60
10
30
60
70
00
00
00
00
00
ENDCHAR
STARTCHAR char179
ENCODING 179
SWIDTH 576 0
DWIDTH 6 0
BBX 6 10 0 -2
BITMAP
60
30
60
30
60
00
00
00
00
00
ENDCHAR
STARTCHAR char180
ENCODING 180
SWIDTH 576 0
DWIDTH 6 0
BBX 6 10 0 -2
BITMAP
10
30
20
00
00
00
00
00
00
00
ENDCHAR
STARTCHAR char181
ENCODING 181
SWIDTH 576 0
DWIDTH 6 0
BBX 6 10 0 -2
BITMAP
00
00
00
2C
2C
58
58
74
40
80
ENDCHAR
STARTCHAR char182
ENCODING 182
SWIDTH 576 0
DWIDTH 6 0
BBX 6 10 0 -2
BITMAP
00
3E
74
F4
F4
68
28
28
28
28
ENDCHAR
STARTCHAR char183
ENCODING 183
SWIDTH 576 0
DWIDTH 6 0
BBX 6 10 0 -2
BITMAP
00
00
00
00
30
30
00
00
00
00
ENDCHAR
STARTCHAR char184
ENCODING 184
SWIDTH 576 0
DWIDTH 6 0
BBX 6 10 0 -2
BITMAP
00
00
00
00
00
00
38
18
18
30
ENDCHAR
STARTCHAR char185
ENCODING 185
SWIDTH 576 0
DWIDTH 6 0
BBX 6 10 0 -2
BITMAP
30
70
30
30
78
00
00
00
00
00
ENDCHAR
STARTCHAR char186
ENCODING 186
SWIDTH 576 0
DWIDTH 6 0
BBX 6 10 0 -2
BITMAP
18
2C
2C
18
00
00
00
00
00
00
ENDCHAR
STARTCHAR char187
ENCODING 187
SWIDTH 576 0
DWIDTH 6 0
BBX 6 10 0 -2
BITMAP
00
00
00
58
2C
2C
58
B0
00
00
ENDCHAR
STARTCHAR char188
ENCODING 188
SWIDTH 576 0
DWIDTH 6 0
BBX 6 10 0 -2
BITMAP
04
4C
58
50
34
6C
5C
C4
80
00
ENDCHAR
STARTCHAR char189
ENCODING 189
SWIDTH 576 0
DWIDTH 6 0
BBX 6 10 0 -2
BITMAP
04
4C
58
50
3C
64
48
CC
80
00
ENDCHAR
STARTCHAR char190
ENCODING 190
SWIDTH 576 0
DWIDTH 6 0
BBX 6 10 0 -2
BITMAP
84
4C
D8
50
B4
6C
5C
C4
80
00
ENDCHAR
STARTCHAR char191
ENCODING 191
SWIDTH 576 0
DWIDTH 6 0
BBX 6 10 0 -2
BITMAP
00
10
00
30
60
C0
C8
70
00
00
ENDCHAR
STARTCHAR char192
ENCODING 192
SWIDTH 576 0
DWIDTH 6 0
BBX 6 10 0 -2
BITMAP
20
10
00
10
28
78
D8
D8
00
00
ENDCHAR
STARTCHAR char193
ENCODING 193
SWIDTH 576 0
DWIDTH 6 0
BBX 6 10 0 -2
BITMAP
10
20
00
10
28
78
D8
D8
00
00
ENDCHAR
STARTCHAR char194
ENCODING 194
SWIDTH 576 0
DWIDTH 6 0
BBX 6 10 0 -2
BITMAP
10
28
00
10
28
78
D8
D8
00
00
ENDCHAR
STARTCHAR char195
ENCODING 195
SWIDTH 576 0
DWIDTH 6 0
BBX 6 10 0 -2
BITMAP
14
28
00
10
28
78
D8
D8
00
00
ENDCHAR
STARTCHAR char196
ENCODING 196
SWIDTH 576 0
DWIDTH 6 0
BBX 6 10 0 -2
BITMAP
00
28
00
10
28
78
D8
D8
00
00
ENDCHAR
STARTCHAR char197
ENCODING 197
SWIDTH 576 0
DWIDTH 6 0
BBX 6 10 0 -2
BITMAP
10
28
10
10
28
78
D8
D8
00
00
ENDCHAR
STARTCHAR char198
ENCODING 198
SWIDTH 576 0
DWIDTH 6 0
BBX 6 10 0 -2
BITMAP
00
3C
58
58
7C
D0
D0
D8
00
00
ENDCHAR
STARTCHAR char199
ENCODING 199
SWIDTH 576 0
DWIDTH 6 0
BBX 6 10 0 -2
BITMAP
00
38
64
60
60
C0
C8
70
20
40
ENDCHAR
STARTCHAR char200
ENCODING 200
SWIDTH 576 0
DWIDTH 6 0
BBX 6 10 0 -2
BITMAP
20
10
00
7C
60
F0
C0
F8
00
00
ENDCHAR
STARTCHAR char201
ENCODING 201
SWIDTH 576 0
DWIDTH 6 0
BBX 6 10 0 -2
BITMAP
10
20
00
7C
60
F0
C0
F8
00
00
ENDCHAR
STARTCHAR char202
ENCODING 202
SWIDTH 576 0
DWIDTH 6 0
BBX 6 10 0 -2
BITMAP
10
28
00
7C
60
F0
C0
F8
00
00
ENDCHAR
STARTCHAR char203
ENCODING 203
SWIDTH 576 0
DWIDTH 6 0
BBX 6 10 0 -2
BITMAP
00
28
00
7C
60
F0
C0
F8
00
00
ENDCHAR
STARTCHAR char204
ENCODING 204
SWIDTH 576 0
DWIDTH 6 0
BBX 6 10 0 -2
BITMAP
10
08
00
3C
18
30
30
78
00
00
ENDCHAR
STARTCHAR char205
ENCODING 205
SWIDTH 576 0
DWIDTH 6 0
BBX 6 10 0 -2
BITMAP
08
10
00
3C
18
30
30
78
00
00
ENDCHAR
STARTCHAR char206
ENCODING 206
SWIDTH 576 0
DWIDTH 6 0
BBX 6 10 0 -2
BITMAP
18
24
00
3C
18
30
30
78
00
00
ENDCHAR
STARTCHAR char207
ENCODING 207
SWIDTH 576 0
DWIDTH 6 0
BBX 6 10 0 -2
BITMAP
00
24
00
3C
18
30
30
78
00
00
ENDCHAR
STARTCHAR char208
ENCODING 208
SWIDTH 576 0
DWIDTH 6 0
BBX 6 10 0 -2
BITMAP
00
70
68
64
F4
C8
D0
E0
00
00
ENDCHAR
STARTCHAR char209
ENCODING 209
SWIDTH 576 0
DWIDTH 6 0
BBX 6 10 0 -2
BITMAP
14
28
00
6C
7C
D8
D8
D8
00
00
ENDCHAR
STARTCHAR char210
ENCODING 210
SWIDTH 576 0
DWIDTH 6 0
BBX 6 10 0 -2
BITMAP
20
10
00
38
6C
D8
D8
70
00
00
ENDCHAR
STARTCHAR char211
ENCODING 211
SWIDTH 576 0
DWIDTH 6 0
BBX 6 10 0 -2
BITMAP
10
20
00
38
6C
D8
D8
70
00
00
ENDCHAR
STARTCHAR char212
ENCODING 212
SWIDTH 576 0
DWIDTH 6 0
BBX 6 10 0 -2
BITMAP
10
28
00
38
6C
D8
D8
70
00
00
ENDCHAR
STARTCHAR char213
ENCODING 213
SWIDTH 576 0
DWIDTH 6 0
BBX 6 10 0 -2
BITMAP
14
28
00
38
6C
D8
D8
70
00
00
ENDCHAR
STARTCHAR char214
ENCODING 214
SWIDTH 576 0
DWIDTH 6 0
BBX 6 10 0 -2
BITMAP
00
28
00
38
6C
D8
D8
70
00
00
ENDCHAR
STARTCHAR char215
ENCODING 215
SWIDTH 576 0
DWIDTH 6 0
BBX 6 10 0 -2
BITMAP
00
00
44
28
30
50
88
00
00
00
ENDCHAR
STARTCHAR char216
ENCODING 216
SWIDTH 576 0
DWIDTH 6 0
BBX 6 10 0 -2
BITMAP
00
34
58
58
58
78
58
B0
00
00
ENDCHAR
STARTCHAR char217
ENCODING 217
SWIDTH 576 0
DWIDTH 6 0
BBX 6 10 0 -2
BITMAP
20
10
00
6C
6C
D8
D8
78
00
00
ENDCHAR
STARTCHAR char218
ENCODING 218
SWIDTH 576 0
DWIDTH 6 0
BBX 6 10 0 -2
BITMAP
10
20
00
6C
6C
D8
D8
78
00
00
ENDCHAR
STARTCHAR char219
ENCODING 219
SWIDTH 576 0
DWIDTH 6 0
BBX 6 10 0 -2
BITMAP
10
28
00
6C
6C
D8
D8
78
00
00
ENDCHAR
STARTCHAR char220
ENCODING 220
SWIDTH 576 0
DWIDTH 6 0
BBX 6 10 0 -2
BITMAP
00
28
00
6C
6C
D8
D8
78
00
00
ENDCHAR
STARTCHAR char221
ENCODING 221
SWIDTH 576 0
DWIDTH 6 0
BBX 6 10 0 -2
BITMAP
08
10
6C
6C
6C
78
20
20
00
00
ENDCHAR
STARTCHAR char222
ENCODING 222
SWIDTH 576 0
DWIDTH 6 0
BBX 6 10 0 -2
BITMAP
00
60
60
78
64
C8
F0
C0
C0
00
ENDCHAR
STARTCHAR char223
ENCODING 223
SWIDTH 576 0
DWIDTH 6 0
BBX 6 10 0 -2
BITMAP
00
18
34
34
38
68
68
70
80
00
ENDCHAR
STARTCHAR char224
ENCODING 224
SWIDTH 576 0
DWIDTH 6 0
BBX 6 10 0 -2
BITMAP
20
10
00
38
0C
78
D8
78
00
00
ENDCHAR
STARTCHAR char225
ENCODING 225
SWIDTH 576 0
DWIDTH 6 0
BBX 6 10 0 -2
BITMAP
10
20
00
38
0C
78
D8
78
00
00
ENDCHAR
STARTCHAR char226
ENCODING 226
SWIDTH 576 0
DWIDTH 6 0
BBX 6 10 0 -2
BITMAP
10
28
00
38
0C
78
D8
78
00
00
ENDCHAR
STARTCHAR char227
ENCODING 227
SWIDTH 576 0
DWIDTH 6 0
BBX 6 10 0 -2
BITMAP
14
28
00
38
0C
78
D8
78
00
00
ENDCHAR
STARTCHAR char228
ENCODING 228
SWIDTH 576 0
DWIDTH 6 0
BBX 6 10 0 -2
BITMAP
00
28
00
38
0C
78
D8
78
00
00
ENDCHAR
STARTCHAR char229
ENCODING 229
SWIDTH 576 0
DWIDTH 6 0
BBX 6 10 0 -2
BITMAP
10
28
10
38
0C
78
D8
78
00
00
ENDCHAR
STARTCHAR char230
ENCODING 230
SWIDTH 576 0
DWIDTH 6 0
BBX 6 10 0 -2
BITMAP
00
00
00
68
34
78
D8
6C
00
00
ENDCHAR
STARTCHAR char231
ENCODING 231
SWIDTH 576 0
DWIDTH 6 0
BBX 6 10 0 -2
BITMAP
00
00
00
3C
60
C0
C0
78
20
40
ENDCHAR
STARTCHAR char232
ENCODING 232
SWIDTH 576 0
DWIDTH 6 0
BBX 6 10 0 -2
BITMAP
20
10
00
38
6C
F8
C0
78
00
00
ENDCHAR
STARTCHAR char233
ENCODING 233
SWIDTH 576 0
DWIDTH 6 0
BBX 6 10 0 -2
BITMAP
10
20
00
38
6C
F8
C0
78
00
00
ENDCHAR
STARTCHAR char234
ENCODING 234
SWIDTH 576 0
DWIDTH 6 0
BBX 6 10 0 -2
BITMAP
10
28
00
38
6C
F8
C0
78
00
00
ENDCHAR
STARTCHAR char235
ENCODING 235
SWIDTH 576 0
DWIDTH 6 0
BBX 6 10 0 -2
BITMAP
00
28
00
38
6C
F8
C0
78
00
00
ENDCHAR
STARTCHAR char236
ENCODING 236
SWIDTH 576 0
DWIDTH 6 0
BBX 6 10 0 -2
BITMAP
20
10
00
38
18
30
30
30
00
00
ENDCHAR
STARTCHAR char237
ENCODING 237
SWIDTH 576 0
DWIDTH 6 0
BBX 6 10 0 -2
BITMAP
08
10
00
38
18
30
30
30
00
00
ENDCHAR
STARTCHAR char238
ENCODING 238
SWIDTH 576 0
DWIDTH 6 0
BBX 6 10 0 -2
BITMAP
10
28
00
38
18
30
30
30
00
00
ENDCHAR
STARTCHAR char239
ENCODING 239
SWIDTH 576 0
DWIDTH 6 0
BBX 6 10 0 -2
BITMAP
00
28
00
38
18
30
30
30
00
00
ENDCHAR
STARTCHAR char240
ENCODING 240
SWIDTH 576 0
DWIDTH 6 0
BBX 6 10 0 -2
BITMAP
00
34
08
08
78
D8
D8
70
00
00
ENDCHAR
STARTCHAR char241
ENCODING 241
SWIDTH 576 0
DWIDTH 6 0
BBX 6 10 0 -2
BITMAP
14
28
00
78
6C
D8
D8
D8
00
00
ENDCHAR
STARTCHAR char242
ENCODING 242
SWIDTH 576 0
DWIDTH 6 0
BBX 6 10 0 -2
BITMAP
20
10
00
38
6C
D8
D8
70
00
00
ENDCHAR
STARTCHAR char243
ENCODING 243
SWIDTH 576 0
DWIDTH 6 0
BBX 6 10 0 -2
BITMAP
10
20
00
38
6C
D8
D8
70
00
00
ENDCHAR
STARTCHAR char244
ENCODING 244
SWIDTH 576 0
DWIDTH 6 0
BBX 6 10 0 -2
BITMAP
10
28
00
38
6C
D8
D8
70
00
00
ENDCHAR
STARTCHAR char245
ENCODING 245
SWIDTH 576 0
DWIDTH 6 0
BBX 6 10 0 -2
BITMAP
28
50
00
38
6C
D8
D8
70
00
00
ENDCHAR
STARTCHAR char246
ENCODING 246
SWIDTH 576 0
DWIDTH 6 0
BBX 6 10 0 -2
BITMAP
00
28
00
38
6C
D8
D8
70
00
00
ENDCHAR
STARTCHAR char247
ENCODING 247
SWIDTH 576 0
DWIDTH 6 0
BBX 6 10 0 -2
BITMAP
00
10
10
00
FC
00
20
20
00
00
ENDCHAR
STARTCHAR char248
ENCODING 248
SWIDTH 576 0
DWIDTH 6 0
BBX 6 10 0 -2
BITMAP
00
00
00
34
58
78
58
B0
00
00
ENDCHAR
STARTCHAR char249
ENCODING 249
SWIDTH 576 0
DWIDTH 6 0
BBX 6 10 0 -2
BITMAP
20
10
00
6C
6C
D8
D8
78
00
00
ENDCHAR
STARTCHAR char250
ENCODING 250
SWIDTH 576 0
DWIDTH 6 0
BBX 6 10 0 -2
BITMAP
10
20
00
6C
6C
D8
D8
78
00
00
ENDCHAR
STARTCHAR char251
ENCODING 251
SWIDTH 576 0
DWIDTH 6 0
BBX 6 10 0 -2
BITMAP
10
28
00
6C
6C
D8
D8
78
00
00
ENDCHAR
STARTCHAR char252
ENCODING 252
SWIDTH 576 0
DWIDTH 6 0
BBX 6 10 0 -2
BITMAP
00
28
00
6C
6C
D8
D8
78
00
00
ENDCHAR
STARTCHAR char253
ENCODING 253
SWIDTH 576 0
DWIDTH 6 0
BBX 6 10 0 -2
BITMAP
10
20
00
6C
6C
D8
D8
78
18
70
ENDCHAR
STARTCHAR char254
ENCODING 254
SWIDTH 576 0
DWIDTH 6 0
BBX 6 10 0 -2
BITMAP
00
60
60
78
64
C8
C8
F0
C0
C0
ENDCHAR
STARTCHAR char255
ENCODING 255
SWIDTH 576 0
DWIDTH 6 0
BBX 6 10 0 -2
BITMAP
00
28
00
6C
6C
D8
D8
78
18
70
ENDCHAR
ENDFONT
